
<svg width="400" height="400" xmlns="http://www.w3.org/2000/svg">
  <defs>
    <linearGradient id="grad1" x1="0%" y1="0%" x2="100%" y2="100%">
      <stop offset="0%" style="stop-color:#B8860B;stop-opacity:1" />
      <stop offset="100%" style="stop-color:#654321;stop-opacity:1" />
    </linearGradient>
    <filter id="shadow" x="-50%" y="-50%" width="200%" height="200%">
      <feDropShadow dx="2" dy="2" stdDeviation="4" flood-color="#000000" flood-opacity="0.3"/>
    </filter>
  </defs>
  
  <!-- Background -->
  <rect width="400" height="400" fill="url(#grad1)"/>
  
  <!-- Decorative border -->
  <rect x="10" y="10" width="380" height="380" fill="none" stroke="#FFD700" stroke-width="3" opacity="0.8"/>
  <rect x="20" y="20" width="360" height="360" fill="none" stroke="#FFD700" stroke-width="1" opacity="0.6"/>
  
  <!-- Religious symbol -->
  <text x="200" y="180" text-anchor="middle" font-size="80" fill="#FFD700" opacity="0.9">🍞</text>
  
  <!-- Title -->
  <text x="200" y="250" text-anchor="middle" font-family="serif" font-size="24" font-weight="bold" fill="#FFFFFF" filter="url(#shadow)">
    Amor Eucarístico
  </text>
  
  <!-- Subtitle -->
  <text x="200" y="280" text-anchor="middle" font-family="serif" font-size="14" fill="#F0E68C" opacity="0.9">
    Agape Prayer App
  </text>
  
  <!-- Decorative elements -->
  <circle cx="80" cy="80" r="3" fill="#FFD700" opacity="0.6"/>
  <circle cx="320" cy="80" r="3" fill="#FFD700" opacity="0.6"/>
  <circle cx="80" cy="320" r="3" fill="#FFD700" opacity="0.6"/>
  <circle cx="320" cy="320" r="3" fill="#FFD700" opacity="0.6"/>
  
  <!-- Cross pattern -->
  <path d="M 190 40 L 210 40 L 210 60 L 230 60 L 230 80 L 210 80 L 210 100 L 190 100 L 190 80 L 170 80 L 170 60 L 190 60 Z" 
        fill="#FFD700" opacity="0.3"/>
</svg>